<svg width="100" height="100" viewBox="0 0 100 100" fill="none" xmlns="http://www.w3.org/2000/svg">
<path fill-rule="evenodd" clip-rule="evenodd" d="M50 0L0 50L50 100L100 50L50 0ZM56.9731 53.2752C57.9833 56.4269 58.9934 60.0028 59.842 63.8818C63.1957 61.5585 65.62 57.9825 66.3877 53.8005C64.1452 53.2954 62.0845 53.053 60.2056 53.053H60.1652C58.9934 53.053 57.9833 53.1338 56.9731 53.2752ZM41.538 63.5586C44.1644 65.5183 47.3969 66.6698 50.9122 66.6698C52.9325 66.6698 54.771 66.3062 56.5085 65.6395C55.6801 61.316 54.5892 57.4775 53.3972 54.1035C49.9021 55.2551 47.1544 57.1946 45.2149 59.0735C43.2957 60.8918 42.1037 62.6494 41.538 63.5586ZM35.1538 50.6892V50.9115C35.1538 54.7702 36.568 58.3058 38.8712 61.013C39.6995 59.7806 41.1339 57.9017 43.2148 55.9622C45.3968 54.0025 48.3464 52.0024 52.1042 50.7498C51.8011 50.0225 51.4981 49.3356 51.195 48.6689C45.5786 50.4266 40.043 50.6892 36.8913 50.7094H36.8711H36.8707C36.184 50.7094 35.5982 50.7094 35.1538 50.6892ZM49.5788 45.3556C47.2353 40.9312 45.0533 38.0825 43.9422 36.7693C39.8005 38.7896 36.7701 42.5676 35.6185 47.0931C35.9619 47.1133 36.3862 47.1133 36.8711 47.1133H36.8913H37.1337C40.0228 47.1133 44.8513 46.79 49.5788 45.3556ZM60.7309 38.6078C58.0439 36.4461 54.6296 35.1531 50.9122 35.1531C49.7606 35.1531 48.6495 35.2945 47.5585 35.5167C48.8919 37.2744 50.9122 40.1432 52.9931 44.1434C55.963 42.8302 58.6702 41.0928 60.7309 38.6078ZM66.6504 50.164C66.4888 46.79 65.2564 43.6788 63.2967 41.1736C60.8117 44.002 57.761 46.0021 54.569 47.3961C54.9324 48.1422 55.2415 48.9064 55.5649 49.7058L55.6195 49.8407C57.0539 49.5983 58.5692 49.4568 60.1854 49.4568H60.2056C62.2259 49.4568 64.3674 49.6791 66.6504 50.164ZM43.1808 32.2463C45.632 31.231 48.2591 30.7084 50.9122 30.7084C53.5653 30.7084 56.1924 31.231 58.6436 32.2463C61.0947 33.2616 63.3219 34.7497 65.1979 36.6257C67.0739 38.5018 68.5621 40.7289 69.5774 43.1801C70.5927 45.6312 71.1153 48.2584 71.1153 50.9115C71.1153 56.2696 68.9867 61.4084 65.1979 65.1972C61.4091 68.986 56.2704 71.1145 50.9122 71.1145C48.2591 71.1145 45.632 70.592 43.1808 69.5766C40.7297 68.5614 38.5025 67.0732 36.6265 65.1972C32.8377 61.4084 30.7092 56.2696 30.7092 50.9115C30.7092 45.5533 32.8377 40.4146 36.6265 36.6257C38.5025 34.7497 40.7297 33.2616 43.1808 32.2463Z" fill="white"/>
</svg>
