<svg width="102" height="101" viewBox="0 0 102 101" fill="none" xmlns="http://www.w3.org/2000/svg">
<path fill-rule="evenodd" clip-rule="evenodd" d="M25.8335 25.0002L0.834961 50.0005L25.9177 75.0833L51.0005 100.166L76.0832 75.0833L101.166 50.0005L76.1675 25.0002C62.4182 11.2502 51.093 0 51.0005 0C50.908 0 39.5827 11.2502 25.8335 25.0002ZM58.0685 29.6437C76.036 36.3 77.9832 60.849 61.2892 70.247C55.9312 73.2635 55.4132 72.7942 55.2542 64.7787L55.1672 60.391L56.363 60.2002C64.206 58.9492 68.3215 49.819 63.9982 43.261C63.1267 41.939 63.0807 41.71 63.3777 40.1668C64.3075 35.3338 61.883 34.1052 57.387 37.1307C56.0567 38.026 55.6307 38.157 54.8132 37.9225C53.4352 37.5273 47.391 37.5572 46.048 37.9665C45.0465 38.2715 44.8015 38.205 43.7147 37.3335C42.4182 36.2937 40.07 35.3332 38.8245 35.3332C37.5622 35.3332 36.8185 38.9345 37.6362 41.0855C37.878 41.721 37.7432 42.1723 36.966 43.3293C32.4887 49.9958 36.353 58.8182 44.3412 60.168L45.6985 60.3973L45.4737 61.9485C45.1727 64.025 45.1995 64 43.2812 64C41.131 64 39.691 63.3055 38.3305 61.6125C37.171 60.1697 35.3832 59.2075 34.4952 59.5482C34.045 59.721 34.1492 59.9612 35.108 60.9615C35.7432 61.6242 36.5777 62.7955 36.962 63.564C38.2227 66.0842 41.2327 67.5783 44.1092 67.1115L45.3337 66.9128V68.7155C45.3337 73.4855 40.7295 72.4718 34.6507 66.3635C17.8807 49.513 35.811 21.3982 58.0685 29.6437Z" fill="white"/>
</svg>
