<svg width="100" height="100" viewBox="0 0 100 100" fill="none" xmlns="http://www.w3.org/2000/svg">
<path fill-rule="evenodd" clip-rule="evenodd" d="M50 0L0 50L50 100L100 50L50 0ZM59.395 29.6065H42.4245C39.3167 29.6065 36.3363 30.841 34.1388 33.0385C31.9412 35.236 30.7067 38.2165 30.7067 41.3242V58.2948C30.7067 64.7598 35.9595 70.0126 42.4245 70.0126H59.395C62.5028 70.0126 65.4832 68.778 67.6807 66.5805C69.8782 64.383 71.1128 61.4025 71.1128 58.2948V41.3242C71.1128 34.8593 65.86 29.6065 59.395 29.6065ZM36.8775 35.7773C38.2415 34.4133 40.0915 33.6471 42.0204 33.6471H59.7991C63.8195 33.6471 67.0722 36.8998 67.0722 40.9202V58.6988C67.0722 60.6278 66.3059 62.4777 64.9419 63.8417C63.578 65.2057 61.728 65.9719 59.7991 65.9719H42.0204C38 65.9719 34.7473 62.7193 34.7473 58.6988V40.9202C34.7473 38.9912 35.5136 37.1413 36.8775 35.7773ZM63.3021 37.4172C62.8285 36.9436 62.1861 36.6775 61.5163 36.6775C60.8466 36.6775 60.2042 36.9436 59.7306 37.4172C59.257 37.8908 58.991 38.5331 58.991 39.2029C58.991 39.8727 59.257 40.515 59.7306 40.9886C60.2042 41.4622 60.8466 41.7283 61.5163 41.7283C62.1861 41.7283 62.8285 41.4622 63.3021 40.9886C63.7757 40.515 64.0417 39.8727 64.0417 39.2029C64.0417 38.5331 63.7757 37.8908 63.3021 37.4172ZM58.0526 42.6667C56.1582 40.7723 53.5888 39.708 50.9097 39.708C48.2307 39.708 45.6613 40.7723 43.7669 42.6667C41.8725 44.5611 40.8082 47.1304 40.8082 49.8095C40.8082 52.4886 41.8725 55.058 43.7669 56.9524C45.6613 58.8468 48.2307 59.911 50.9097 59.911C53.5888 59.911 56.1582 58.8468 58.0526 56.9524C59.947 55.058 61.0113 52.4886 61.0113 49.8095C61.0113 47.1304 59.947 44.5611 58.0526 42.6667ZM46.624 45.5238C47.7607 44.3872 49.3023 43.7486 50.9097 43.7486C52.5172 43.7486 54.0588 44.3872 55.1955 45.5238C56.3321 46.6604 56.9707 48.2021 56.9707 49.8095C56.9707 51.417 56.3321 52.9586 55.1955 54.0952C54.0588 55.2319 52.5172 55.8704 50.9097 55.8704C49.3023 55.8704 47.7607 55.2319 46.624 54.0952C45.4874 52.9586 44.8488 51.417 44.8488 49.8095C44.8488 48.2021 45.4874 46.6604 46.624 45.5238Z" fill="white"/>
</svg>
