<svg width="100" height="100" viewBox="0 0 100 100" fill="none" xmlns="http://www.w3.org/2000/svg">
<path fill-rule="evenodd" clip-rule="evenodd" d="M50 0L0 50L50 100L100 50L50 0ZM68.759 53.7684V68.759H60.8677V54.8149C60.8677 53.7647 60.4505 52.7575 59.7079 52.0149C58.9653 51.2723 57.9581 50.8551 56.9079 50.8551C54.7301 50.8551 52.9764 52.637 52.9764 54.8149V68.759H45.0851V45.0851H52.9764V48.2247C54.3341 46.0185 57.1342 44.5477 59.5384 44.5477C61.9838 44.5477 64.3292 45.5192 66.0584 47.2484C67.7876 48.9776 68.759 51.3229 68.759 53.7684ZM39.2527 39.2527C38.3616 40.1439 37.153 40.6445 35.8927 40.6445C33.2623 40.6445 31.1127 38.5232 31.1127 35.8927C31.1127 34.625 31.6163 33.4092 32.5127 32.5127C33.4092 31.6163 34.625 31.1127 35.8927 31.1127C38.5232 31.1127 40.6445 33.2623 40.6445 35.8927C40.6445 37.153 40.1439 38.3616 39.2527 39.2527ZM39.8242 45.0851V68.759H31.9895V45.0851H39.8242Z" fill="white"/>
</svg>
