<svg width="30" height="27" viewBox="0 0 30 27" fill="none" xmlns="http://www.w3.org/2000/svg">
<path d="M7.52 0.0399952L10.112 1.96C9.408 2.856 8.672 4.136 7.904 5.8C7.136 7.464 6.528 9.288 6.08 11.272C5.632 13.256 5.504 15.24 5.696 17.224C6.144 17.032 6.56 16.904 6.944 16.84C7.328 16.712 7.712 16.648 8.096 16.648C9.376 16.648 10.432 17.096 11.264 17.992C12.096 18.888 12.512 20.008 12.512 21.352C12.512 23.144 12 24.52 10.976 25.48C9.952 26.44 8.704 26.92 7.232 26.92C5.056 26.92 3.36 26.088 2.144 24.424C0.992 22.696 0.416 20.616 0.416 18.184C0.416 16.52 0.704 14.568 1.28 12.328C1.92 10.024 2.752 7.752 3.776 5.512C4.864 3.272 6.112 1.448 7.52 0.0399952ZM24.416 0.0399952L27.008 1.96C26.304 2.856 25.568 4.136 24.8 5.8C24.032 7.464 23.424 9.288 22.976 11.272C22.528 13.256 22.4 15.24 22.592 17.224C23.04 17.032 23.456 16.904 23.84 16.84C24.224 16.712 24.608 16.648 24.992 16.648C26.272 16.648 27.328 17.096 28.16 17.992C28.992 18.888 29.408 20.008 29.408 21.352C29.408 23.144 28.896 24.52 27.872 25.48C26.848 26.44 25.6 26.92 24.128 26.92C21.952 26.92 20.256 26.088 19.04 24.424C17.888 22.696 17.312 20.616 17.312 18.184C17.312 16.52 17.6 14.568 18.176 12.328C18.816 10.024 19.648 7.752 20.672 5.512C21.76 3.272 23.008 1.448 24.416 0.0399952Z" fill="#333333"/>
</svg>
